<svg width="14" height="14" viewBox="0 0 14 14" fill="none" xmlns="http://www.w3.org/2000/svg">
<path d="M7.02042 9.92399C7.02042 9.45986 6.83604 9.01474 6.50785 8.68656C6.17966 8.35837 5.73455 8.17399 5.27042 8.17399L5.089 8.17283C5.00615 8.17234 4.92529 8.14736 4.85661 8.10103C4.78792 8.0547 4.73447 7.9891 4.70298 7.91246C4.67149 7.83583 4.66337 7.75159 4.67964 7.67036C4.69591 7.58912 4.73584 7.51451 4.79442 7.45591L5.4915 6.75883C5.71024 6.54002 6.00694 6.41706 6.31633 6.41699H7C7.30942 6.41699 7.60617 6.29408 7.82496 6.07528C8.04375 5.85649 8.16667 5.55974 8.16667 5.25033C8.16667 4.94091 8.04375 4.64416 7.82496 4.42537C7.60617 4.20658 7.30942 4.08366 7 4.08366H5.39175C5.16186 4.08363 4.93421 4.1289 4.72182 4.21688C4.50943 4.30486 4.31645 4.43383 4.15392 4.59641L2.57483 6.17549C2.04678 6.70375 1.7501 7.42007 1.75 8.16699C1.75 9.40467 2.24167 10.5917 3.11684 11.4668C3.992 12.342 5.17899 12.8337 6.41667 12.8337H7.58333C8.82101 12.8337 10.008 12.342 10.8832 11.4668C11.7583 10.5917 12.25 9.40467 12.25 8.16699V4.08366C12.25 3.77424 12.1271 3.47749 11.9083 3.2587C11.6895 3.03991 11.3928 2.91699 11.0833 2.91699C10.7739 2.91699 10.4772 3.03991 10.2584 3.2587C10.0396 3.47749 9.91667 3.77424 9.91667 4.08366V5.25033C9.91667 5.55974 10.0396 5.85649 10.2584 6.07528C10.4772 6.29408 10.7739 6.41699 11.0833 6.41699C11.3928 6.41699 11.6895 6.29408 11.9083 6.07528C12.1271 5.85649 12.25 5.55974 12.25 5.25033" stroke="currentColor" stroke-linecap="round" stroke-linejoin="round"/>
<path d="M8.10003 5.63617C8.27566 5.75365 8.4799 5.82123 8.69095 5.83169C8.90199 5.84215 9.11191 5.7951 9.2983 5.69555C9.48469 5.59601 9.64054 5.44772 9.74922 5.26651C9.8579 5.0853 9.91533 4.87797 9.91536 4.66667V2.91667C9.91536 2.60725 9.79245 2.3105 9.57366 2.09171C9.35486 1.87292 9.05812 1.75 8.7487 1.75C8.43928 1.75 8.14253 1.87292 7.92374 2.09171C7.70495 2.3105 7.58203 2.60725 7.58203 2.91667" stroke="currentColor" stroke-linecap="round" stroke-linejoin="round"/>
<path d="M5.2513 2.91667C5.2513 2.60725 5.12839 2.3105 4.90959 2.09171C4.6908 1.87292 4.39405 1.75 4.08464 1.75C3.77522 1.75 3.47847 1.87292 3.25968 2.09171C3.04089 2.3105 2.91797 2.60725 2.91797 2.91667V5.83333" stroke="currentColor" stroke-linecap="round" stroke-linejoin="round"/>
<path d="M5.25 4.08366V2.33366C5.25 2.02424 5.37292 1.72749 5.59171 1.5087C5.8105 1.28991 6.10725 1.16699 6.41667 1.16699C6.72609 1.16699 7.02283 1.28991 7.24162 1.5087C7.46042 1.72749 7.58333 2.02424 7.58333 2.33366V4.23999" stroke="currentColor" stroke-linecap="round" stroke-linejoin="round"/>
</svg>
