<svg width="16" height="16" viewBox="0 0 16 16" fill="none" xmlns="http://www.w3.org/2000/svg">
<path d="M8.02333 11.3413C8.02333 10.8108 7.81262 10.3021 7.43755 9.92704C7.06247 9.55197 6.55377 9.34125 6.02333 9.34125L5.816 9.33992C5.72131 9.33936 5.62891 9.31082 5.55041 9.25787C5.47191 9.20492 5.41082 9.12994 5.37483 9.04236C5.33885 8.95478 5.32957 8.85851 5.34816 8.76567C5.36675 8.67282 5.41239 8.58755 5.47933 8.52059L6.276 7.72392C6.52599 7.47385 6.86507 7.33333 7.21867 7.33325H8C8.35362 7.33325 8.69276 7.19278 8.94281 6.94273C9.19286 6.69268 9.33333 6.35354 9.33333 5.99992C9.33333 5.6463 9.19286 5.30716 8.94281 5.05711C8.69276 4.80706 8.35362 4.66659 8 4.66659H6.162C5.89927 4.66655 5.6391 4.71829 5.39636 4.81884C5.15363 4.91939 4.93309 5.06678 4.74733 5.25259L2.94267 7.05725C2.33918 7.66098 2.00012 8.47963 2 9.33325C2 10.7477 2.5619 12.1043 3.5621 13.1045C4.56229 14.1047 5.91885 14.6666 7.33333 14.6666H8.66667C10.0812 14.6666 11.4377 14.1047 12.4379 13.1045C13.4381 12.1043 14 10.7477 14 9.33325V4.66659C14 4.31296 13.8595 3.97382 13.6095 3.72378C13.3594 3.47373 13.0203 3.33325 12.6667 3.33325C12.313 3.33325 11.9739 3.47373 11.7239 3.72378C11.4738 3.97382 11.3333 4.31296 11.3333 4.66659V5.99992C11.3333 6.35354 11.4738 6.69268 11.7239 6.94273C11.9739 7.19278 12.313 7.33325 12.6667 7.33325C13.0203 7.33325 13.3594 7.19278 13.6095 6.94273C13.8595 6.69268 14 6.35354 14 5.99992" stroke="currentColor" stroke-width="1.5" stroke-linecap="round" stroke-linejoin="round"/>
<path d="M9.25899 6.44133C9.45971 6.5756 9.69313 6.65284 9.93432 6.66479C10.1755 6.67674 10.4154 6.62297 10.6284 6.5092C10.8415 6.39544 11.0196 6.22596 11.1438 6.01887C11.268 5.81177 11.3336 5.57482 11.3337 5.33333V3.33333C11.3337 2.97971 11.1932 2.64057 10.9431 2.39052C10.6931 2.14048 10.3539 2 10.0003 2C9.6467 2 9.30757 2.14048 9.05752 2.39052C8.80747 2.64057 8.66699 2.97971 8.66699 3.33333" stroke="currentColor" stroke-width="1.5" stroke-linecap="round" stroke-linejoin="round"/>
<path d="M5.99967 3.33333C5.99967 2.97971 5.8592 2.64057 5.60915 2.39052C5.3591 2.14048 5.01996 2 4.66634 2C4.31272 2 3.97358 2.14048 3.72353 2.39052C3.47348 2.64057 3.33301 2.97971 3.33301 3.33333V6.66667" stroke="currentColor" stroke-width="1.5" stroke-linecap="round" stroke-linejoin="round"/>
<path d="M6 4.66659V2.66659C6 2.31296 6.14048 1.97382 6.39052 1.72378C6.64057 1.47373 6.97971 1.33325 7.33333 1.33325C7.68696 1.33325 8.02609 1.47373 8.27614 1.72378C8.52619 1.97382 8.66667 2.31296 8.66667 2.66659V4.84525" stroke="currentColor" stroke-width="1.5" stroke-linecap="round" stroke-linejoin="round"/>
</svg>
