<svg width="40" height="40" viewBox="0 0 40 40" fill="none" xmlns="http://www.w3.org/2000/svg">
<g clip-path="url(#clip0_2770_30206)">
<rect width="8" height="8" fill="#9F80AD"/>
<rect y="1" width="8" height="8" fill="#9F80AD"/>
<rect y="8" width="8" height="8" fill="#9F80AD"/>
<rect y="10" width="8" height="8" fill="#9F80AD"/>
<rect y="16" width="8" height="8" fill="#9F80AD"/>
<rect y="18" width="8" height="8" fill="#9F80AD"/>
<rect x="2" y="16" width="8" height="8" fill="#9F80AD"/>
<rect y="24" width="8" height="8" fill="#9F80AD"/>
<rect x="2" y="24" width="8" height="8" fill="#9F80AD"/>
<rect y="32" width="8" height="8" fill="#9F80AD"/>
<rect y="30" width="8" height="8" fill="#9F80AD"/>
<rect x="8" width="8" height="8" fill="#9F80AD"/>
<rect x="6" width="8" height="8" fill="#9F80AD"/>
<rect x="8" y="8" width="8" height="8" fill="white"/>
<rect x="8" y="16" width="8" height="8" fill="#9F80AD"/>
<rect x="8" y="18" width="8" height="8" fill="#9F80AD"/>
<rect x="8" y="24" width="8" height="8" fill="#9F80AD"/>
<rect x="9" y="24" width="8" height="8" fill="#9F80AD"/>
<rect x="8" y="32" width="8" height="8" fill="#9F80AD"/>
<rect x="10" y="32" width="8" height="8" fill="#9F80AD"/>
<rect x="8" y="29" width="8" height="8" fill="#9F80AD"/>
<rect x="16" width="8" height="8" fill="white"/>
<rect x="16" y="8" width="8" height="8" fill="#9F80AD"/>
<rect x="16" y="16" width="8" height="8" fill="white"/>
<rect x="16" y="24" width="8" height="8" fill="#9F80AD"/>
<rect x="16" y="26" width="8" height="8" fill="#9F80AD"/>
<rect x="16" y="32" width="8" height="8" fill="#9F80AD"/>
<rect x="18" y="32" width="8" height="8" fill="#9F80AD"/>
<rect x="24" width="8" height="8" fill="#9F80AD"/>
<rect x="27" width="8" height="8" fill="#9F80AD"/>
<rect x="24" y="8" width="8" height="8" fill="white"/>
<rect x="24" y="16" width="8" height="8" fill="white"/>
<rect x="24" y="24" width="8" height="8" fill="white"/>
<rect x="24" y="32" width="8" height="8" fill="#9F80AD"/>
<rect x="26" y="32" width="8" height="8" fill="#9F80AD"/>
<rect x="32" width="8" height="8" fill="#9F80AD"/>
<rect x="32" y="8" width="8" height="8" fill="#9F80AD"/>
<rect x="32" y="6" width="8" height="8" fill="#9F80AD"/>
<rect x="32" y="16" width="8" height="8" fill="white"/>
<rect x="32" y="24" width="8" height="8" fill="#9F80AD"/>
<rect x="32" y="26" width="8" height="8" fill="#9F80AD"/>
<rect x="32" y="32" width="8" height="8" fill="#9F80AD"/>
</g>
<defs>
<clipPath id="clip0_2770_30206">
<path d="M0 20C0 8.95431 8.95431 0 20 0C31.0457 0 40 8.95431 40 20C40 31.0457 31.0457 40 20 40C8.95431 40 0 31.0457 0 20Z" fill="white"/>
</clipPath>
</defs>
</svg>
