<svg width="40" height="40" viewBox="0 0 40 40" fill="none" xmlns="http://www.w3.org/2000/svg">
<g clip-path="url(#clip0_2770_30327)">
<rect width="8" height="8" fill="white"/>
<rect y="8" width="8" height="8" fill="#89AF8F"/>
<rect y="11" width="8" height="8" fill="#89AF8F"/>
<rect y="16" width="8" height="8" fill="#89AF8F"/>
<rect y="19" width="8" height="8" fill="#89AF8F"/>
<rect y="24" width="8" height="8" fill="#89AF8F"/>
<rect y="32" width="8" height="8" fill="white"/>
<rect x="8" width="8" height="8" fill="white"/>
<rect x="8" y="8" width="8" height="8" fill="#89AF8F"/>
<rect x="3" y="8" width="8" height="8" fill="#89AF8F"/>
<rect x="8" y="16" width="8" height="8" fill="white"/>
<rect x="8" y="24" width="8" height="8" fill="#89AF8F"/>
<rect x="6" y="24" width="8" height="8" fill="#89AF8F"/>
<rect x="8" y="32" width="8" height="8" fill="white"/>
<rect x="16" width="8" height="8" fill="#89AF8F"/>
<rect x="20" width="8" height="8" fill="#89AF8F"/>
<rect x="16" y="8" width="8" height="8" fill="white"/>
<rect x="16" y="16" width="8" height="8" fill="#89AF8F"/>
<rect x="16" y="24" width="8" height="8" fill="white"/>
<rect x="16" y="32" width="8" height="8" fill="#89AF8F"/>
<rect x="24" width="8" height="8" fill="#89AF8F"/>
<rect x="24" y="2" width="8" height="8" fill="#89AF8F"/>
<rect x="24" y="10" width="8" height="8" fill="#89AF8F"/>
<rect x="24" y="20" width="8" height="8" fill="#89AF8F"/>
<rect x="28" width="8" height="8" fill="#89AF8F"/>
<rect x="26" width="8" height="8" fill="#89AF8F"/>
<rect x="24" y="8" width="8" height="8" fill="#89AF8F"/>
<rect x="27" y="8" width="8" height="8" fill="#89AF8F"/>
<rect x="24" y="16" width="8" height="8" fill="#89AF8F"/>
<rect x="22" y="16" width="8" height="8" fill="#89AF8F"/>
<rect x="24" y="24" width="8" height="8" fill="#89AF8F"/>
<rect x="27" y="24" width="8" height="8" fill="#89AF8F"/>
<rect x="24" y="32" width="8" height="8" fill="white"/>
<rect x="32" width="8" height="8" fill="#89AF8F"/>
<rect x="32" y="2" width="8" height="8" fill="#89AF8F"/>
<rect x="32" y="10" width="8" height="8" fill="#89AF8F"/>
<rect x="32" y="20" width="8" height="8" fill="#89AF8F"/>
<rect x="32" y="8" width="8" height="8" fill="#89AF8F"/>
<rect x="32" y="16" width="8" height="8" fill="#89AF8F"/>
<rect x="29" y="16" width="8" height="8" fill="#89AF8F"/>
<rect x="32" y="24" width="8" height="8" fill="#89AF8F"/>
<rect x="32" y="22" width="8" height="8" fill="#89AF8F"/>
<rect x="32" y="32" width="8" height="8" fill="#89AF8F"/>
<rect x="32" y="30" width="8" height="8" fill="#89AF8F"/>
</g>
<defs>
<clipPath id="clip0_2770_30327">
<path d="M0 20C0 8.95431 8.95431 0 20 0C31.0457 0 40 8.95431 40 20C40 31.0457 31.0457 40 20 40C8.95431 40 0 31.0457 0 20Z" fill="white"/>
</clipPath>
</defs>
</svg>
