<svg width="40" height="40" viewBox="0 0 40 40" fill="none" xmlns="http://www.w3.org/2000/svg">
<g clip-path="url(#clip0_2770_30027)">
<rect width="8" height="8" fill="#CF5E4F"/>
<rect y="8" width="8" height="8" fill="white"/>
<rect y="16" width="8" height="8" fill="#CF5E4F"/>
<rect y="18" width="8" height="8" fill="#CF5E4F"/>
<rect x="3" y="16" width="8" height="8" fill="#CF5E4F"/>
<rect y="24" width="8" height="8" fill="#CF5E4F"/>
<rect x="3" y="24" width="8" height="8" fill="#CF5E4F"/>
<rect y="32" width="8" height="8" fill="#CF5E4F"/>
<rect x="8" width="8" height="8" fill="white"/>
<rect x="8" y="8" width="8" height="8" fill="#CF5E4F"/>
<rect x="8" y="16" width="8" height="8" fill="#CF5E4F"/>
<rect x="10" y="16" width="8" height="8" fill="#CF5E4F"/>
<rect x="8" y="13" width="8" height="8" fill="#CF5E4F"/>
<rect x="8" y="24" width="8" height="8" fill="#CF5E4F"/>
<rect x="8" y="27" width="8" height="8" fill="#CF5E4F"/>
<rect x="12" y="24" width="8" height="8" fill="#CF5E4F"/>
<rect x="8" y="20" width="8" height="8" fill="#CF5E4F"/>
<rect x="8" y="32" width="8" height="8" fill="#CF5E4F"/>
<rect x="5" y="32" width="8" height="8" fill="#CF5E4F"/>
<rect x="16" width="8" height="8" fill="#CF5E4F"/>
<rect x="20" width="8" height="8" fill="#CF5E4F"/>
<rect x="16" y="8" width="8" height="8" fill="white"/>
<rect x="16" y="16" width="8" height="8" fill="#CF5E4F"/>
<rect x="16" y="24" width="8" height="8" fill="#CF5E4F"/>
<rect x="16" y="27" width="8" height="8" fill="#CF5E4F"/>
<rect x="18" y="24" width="8" height="8" fill="#CF5E4F"/>
<rect x="16" y="21" width="8" height="8" fill="#CF5E4F"/>
<rect x="16" y="32" width="8" height="8" fill="#CF5E4F"/>
<rect x="12" y="32" width="8" height="8" fill="#CF5E4F"/>
<rect x="24" width="8" height="8" fill="#CF5E4F"/>
<rect x="28" width="8" height="8" fill="#CF5E4F"/>
<rect x="24" y="4" width="8" height="8" fill="#CF5E4F"/>
<rect x="24" y="8" width="8" height="8" fill="#CF5E4F"/>
<rect x="24" y="6" width="8" height="8" fill="#CF5E4F"/>
<rect x="27" y="8" width="8" height="8" fill="#CF5E4F"/>
<rect x="24" y="16" width="8" height="8" fill="white"/>
<rect x="24" y="24" width="8" height="8" fill="#CF5E4F"/>
<rect x="24" y="27" width="8" height="8" fill="#CF5E4F"/>
<rect x="24" y="32" width="8" height="8" fill="#CF5E4F"/>
<rect x="19" y="32" width="8" height="8" fill="#CF5E4F"/>
<rect x="32" width="8" height="8" fill="#CF5E4F"/>
<rect x="32" y="8" width="8" height="8" fill="#CF5E4F"/>
<rect x="32" y="11" width="8" height="8" fill="#CF5E4F"/>
<rect x="32" y="5" width="8" height="8" fill="#CF5E4F"/>
<rect x="32" y="16" width="8" height="8" fill="#CF5E4F"/>
<rect x="32" y="24" width="8" height="8" fill="white"/>
<rect x="32" y="32" width="8" height="8" fill="#CF5E4F"/>
<rect x="30" y="32" width="8" height="8" fill="#CF5E4F"/>
</g>
<defs>
<clipPath id="clip0_2770_30027">
<path d="M0 20C0 8.95431 8.95431 0 20 0C31.0457 0 40 8.95431 40 20C40 31.0457 31.0457 40 20 40C8.95431 40 0 31.0457 0 20Z" fill="white"/>
</clipPath>
</defs>
</svg>
