<svg width="14" height="14" viewBox="0 0 14 14" fill="none" xmlns="http://www.w3.org/2000/svg">
<g clip-path="url(#clip0_3131_16287)">
<path d="M7.2349 1.57461C7.50457 1.32452 7.85878 1.18555 8.22657 1.18555C8.59436 1.18555 8.94856 1.32452 9.21823 1.57461L12.4266 4.78295C12.6767 5.05261 12.8156 5.40682 12.8156 5.77461C12.8156 6.1424 12.6767 6.49661 12.4266 6.76628L10.2682 8.92461C9.99856 9.17471 9.64436 9.31368 9.27657 9.31368C8.90878 9.31368 8.55457 9.17471 8.2849 8.92461L5.07657 5.71628C4.82647 5.44661 4.6875 5.0924 4.6875 4.72461C4.6875 4.35682 4.82647 4.00261 5.07657 3.73295L7.2349 1.57461Z" stroke="currentColor" stroke-linecap="round" stroke-linejoin="round"/>
<path d="M8.16797 4.08301L9.91797 5.83301" stroke="currentColor" stroke-linecap="round" stroke-linejoin="round"/>
<path d="M5.48464 6.18359L1.5098 10.1584C1.29099 10.3772 1.16803 10.6739 1.16797 10.9833V12.2503C1.16797 12.405 1.22943 12.5533 1.33882 12.6627C1.44822 12.7721 1.59659 12.8336 1.7513 12.8336H3.5013C3.65601 12.8336 3.80438 12.7721 3.91378 12.6627C4.02318 12.5533 4.08464 12.405 4.08464 12.2503V11.6669C4.08464 11.5122 4.14609 11.3638 4.25549 11.2544C4.36489 11.1451 4.51326 11.0836 4.66797 11.0836H5.2513C5.40601 11.0836 5.55438 11.0221 5.66378 10.9127C5.77318 10.8033 5.83464 10.655 5.83464 10.5003V9.91693C5.83464 9.76222 5.89609 9.61384 6.00549 9.50445C6.11489 9.39505 6.26326 9.33359 6.41797 9.33359H6.5183C6.8277 9.33353 7.12439 9.21057 7.34314 8.99176L7.81797 8.51693" stroke="currentColor" stroke-linecap="round" stroke-linejoin="round"/>
</g>
<defs>
<clipPath id="clip0_3131_16287">
<rect width="14" height="14" fill="white"/>
</clipPath>
</defs>
</svg>
