<svg width="16" height="16" viewBox="0 0 16 16" fill="none" xmlns="http://www.w3.org/2000/svg">
<g clip-path="url(#clip0_3131_5541)">
<path d="M8.26678 1.80012C8.57497 1.51429 8.97978 1.35547 9.40012 1.35547C9.82045 1.35547 10.2253 1.51429 10.5334 1.80012L14.2001 5.46678C14.4859 5.77497 14.6448 6.17978 14.6448 6.60011C14.6448 7.02045 14.4859 7.42526 14.2001 7.73345L11.7334 10.2001C11.4253 10.4859 11.0204 10.6448 10.6001 10.6448C10.1798 10.6448 9.77497 10.4859 9.46678 10.2001L5.80011 6.53345C5.51429 6.22526 5.35547 5.82045 5.35547 5.40012C5.35547 4.97978 5.51429 4.57497 5.80011 4.26678L8.26678 1.80012Z" stroke="currentColor" stroke-width="1.5" stroke-linecap="round" stroke-linejoin="round"/>
<path d="M9.33301 4.66675L11.333 6.66675" stroke="currentColor" stroke-width="1.5" stroke-linecap="round" stroke-linejoin="round"/>
<path d="M6.26634 7.06665L1.72367 11.6093C1.47361 11.8593 1.33308 12.1984 1.33301 12.552V14C1.33301 14.1768 1.40325 14.3464 1.52827 14.4714C1.65329 14.5964 1.82286 14.6666 1.99967 14.6666H3.99967C4.17649 14.6666 4.34605 14.5964 4.47108 14.4714C4.5961 14.3464 4.66634 14.1768 4.66634 14V13.3333C4.66634 13.1565 4.73658 12.9869 4.8616 12.8619C4.98663 12.7369 5.1562 12.6666 5.33301 12.6666H5.99967C6.17649 12.6666 6.34605 12.5964 6.47108 12.4714C6.5961 12.3464 6.66634 12.1768 6.66634 12V11.3333C6.66634 11.1565 6.73658 10.9869 6.8616 10.8619C6.98663 10.7369 7.1562 10.6666 7.33301 10.6666H7.44767C7.80127 10.6666 8.14035 10.526 8.39034 10.276L8.93301 9.73332" stroke="currentColor" stroke-width="1.5" stroke-linecap="round" stroke-linejoin="round"/>
</g>
<defs>
<clipPath id="clip0_3131_5541">
<rect width="16" height="16" fill="white"/>
</clipPath>
</defs>
</svg>
