<svg width="14" height="14" viewBox="0 0 14 14" fill="none" xmlns="http://www.w3.org/2000/svg">
<mask id="path-1-inside-1_702_622" fill="white">
<path d="M1 5C1 2.79086 2.79086 1 5 1H9C11.2091 1 13 2.79086 13 5V9C13 11.2091 11.2091 13 9 13H5C2.79086 13 1 11.2091 1 9V5Z"/>
</mask>
<path d="M5 1V2H9V1V0H5V1ZM13 5H12V9H13H14V5H13ZM9 13V12H5V13V14H9V13ZM1 9H2V5H1H0V9H1ZM5 13V12C3.34315 12 2 10.6569 2 9H1H0C0 11.7614 2.23858 14 5 14V13ZM13 9H12C12 10.6569 10.6569 12 9 12V13V14C11.7614 14 14 11.7614 14 9H13ZM9 1V2C10.6569 2 12 3.34315 12 5H13H14C14 2.23858 11.7614 0 9 0V1ZM5 1V0C2.23858 0 0 2.23858 0 5H1H2C2 3.34315 3.34315 2 5 2V1Z" fill="currentColor" mask="url(#path-1-inside-1_702_622)"/>
</svg>
