<svg width="24" height="24" viewBox="0 0 24 24" fill="none" xmlns="http://www.w3.org/2000/svg">
<path d="M8.58993 13.51L15.4199 17.49M15.4099 6.51004L8.58993 10.49M21 5.00001C21 6.65687 19.6569 8.00001 18 8.00001C16.3431 8.00001 15 6.65687 15 5.00001C15 3.34316 16.3431 2.00001 18 2.00001C19.6569 2.00001 21 3.34316 21 5.00001ZM9 12C9 13.6569 7.65685 15 6 15C4.34315 15 3 13.6569 3 12C3 10.3431 4.34315 9 6 9C7.65685 9 9 10.3431 9 12ZM21 19C21 20.6568 19.6569 22 18 22C16.3431 22 15 20.6568 15 19C15 17.3431 16.3431 16 18 16C19.6569 16 21 17.3431 21 19Z" stroke="currentColor" stroke-width="2" stroke-linecap="round" stroke-linejoin="round"/>
</svg>
