<svg width="16" height="16" viewBox="0 0 16 16" fill="none" xmlns="http://www.w3.org/2000/svg">
<path d="M8.00016 4.66667C8.00016 3.95942 7.71921 3.28115 7.21911 2.78105C6.71902 2.28095 6.04074 2 5.3335 2H1.3335V12H6.00016C6.5306 12 7.0393 12.2107 7.41438 12.5858C7.78945 12.9609 8.00016 13.4696 8.00016 14M8.00016 4.66667V14M8.00016 4.66667C8.00016 3.95942 8.2811 3.28115 8.7812 2.78105C9.2813 2.28095 9.95957 2 10.6668 2H14.6668V12H10.0002C9.46972 12 8.96101 12.2107 8.58594 12.5858C8.21086 12.9609 8.00016 13.4696 8.00016 14" stroke="currentColor" stroke-width="1.5" stroke-linecap="round" stroke-linejoin="round"/>
</svg>
