<svg width="14" height="14" viewBox="0 0 14 14" fill="none" xmlns="http://www.w3.org/2000/svg">
<g clip-path="url(#clip0_119_12)">
<path d="M5.83344 7.58331C6.08396 7.91822 6.40357 8.19533 6.7706 8.39586C7.13763 8.59638 7.54349 8.71563 7.96066 8.7455C8.37782 8.77538 8.79654 8.71519 9.1884 8.56901C9.58026 8.42284 9.9361 8.1941 10.2318 7.89831L11.9818 6.14831C12.5131 5.59822 12.8071 4.86146 12.8004 4.09672C12.7938 3.33198 12.487 2.60044 11.9462 2.05967C11.4055 1.5189 10.6739 1.21215 9.9092 1.20551C9.14446 1.19886 8.4077 1.49285 7.85761 2.02414L6.85428 3.02164M8.16678 6.41661C7.91627 6.0817 7.59666 5.80459 7.22963 5.60406C6.8626 5.40354 6.45674 5.28429 6.03957 5.25442C5.6224 5.22454 5.20369 5.28473 4.81183 5.43091C4.41997 5.57708 4.06413 5.80582 3.76845 6.10161L2.01845 7.85161C1.48716 8.4017 1.19317 9.13846 1.19982 9.9032C1.20646 10.6679 1.51321 11.3995 2.05398 11.9403C2.59475 12.481 3.32629 12.7878 4.09103 12.7944C4.85577 12.8011 5.59253 12.5071 6.14262 11.9758L7.14012 10.9783" stroke="#1A1A1A" stroke-linecap="round" stroke-linejoin="round"/>
</g>
<defs>
<clipPath id="clip0_119_12">
<rect width="14" height="14" fill="white"/>
</clipPath>
</defs>
</svg>
