<svg width="16" height="16" viewBox="0 0 16 16" fill="none" xmlns="http://www.w3.org/2000/svg">
<g clip-path="url(#clip0_498_525)">
<path d="M6.66679 8.66665C6.9531 9.0494 7.31837 9.3661 7.73783 9.59528C8.15729 9.82445 8.62113 9.96073 9.09789 9.99487C9.57466 10.029 10.0532 9.96023 10.501 9.79317C10.9489 9.62611 11.3555 9.3647 11.6935 9.02665L13.6935 7.02665C14.3007 6.39798 14.6366 5.55597 14.629 4.68198C14.6214 3.80799 14.2709 2.97195 13.6529 2.35392C13.0348 1.73589 12.1988 1.38533 11.3248 1.37774C10.4508 1.37014 9.6088 1.70612 8.98013 2.31332L7.83346 3.45332M9.33347 7.33328C9.04716 6.95053 8.68189 6.63383 8.26243 6.40466C7.84297 6.17548 7.37913 6.03921 6.90237 6.00506C6.4256 5.97092 5.94708 6.0397 5.49924 6.20676C5.0514 6.37382 4.64472 6.63524 4.3068 6.97328L2.3068 8.97328C1.69961 9.60196 1.36363 10.444 1.37122 11.318C1.37881 12.1919 1.72938 13.028 2.3474 13.646C2.96543 14.264 3.80147 14.6146 4.67546 14.6222C5.54945 14.6298 6.39146 14.2938 7.02013 13.6866L8.16013 12.5466" stroke="currentColor" stroke-width="1.5" stroke-linecap="round" stroke-linejoin="round"/>
</g>
<defs>
<clipPath id="clip0_498_525">
<rect width="16" height="16" fill="white"/>
</clipPath>
</defs>
</svg>
