<svg width="24" height="24" viewBox="0 0 24 24" fill="none" xmlns="http://www.w3.org/2000/svg">
<path d="M10.0002 13C10.4296 13.5741 10.9775 14.0491 11.6067 14.3929C12.2359 14.7367 12.9317 14.9411 13.6468 14.9923C14.362 15.0435 15.0798 14.9403 15.7515 14.6897C16.4233 14.4392 17.0333 14.047 17.5402 13.54L20.5402 10.54C21.451 9.59695 21.955 8.33394 21.9436 7.02296C21.9322 5.71198 21.4063 4.45791 20.4793 3.53087C19.5522 2.60383 18.2982 2.07799 16.9872 2.0666C15.6762 2.0552 14.4132 2.55918 13.4702 3.46997L11.7502 5.17997M14.0002 10.9999C13.5707 10.4258 13.0228 9.95073 12.3936 9.60698C11.7645 9.26322 11.0687 9.0588 10.3535 9.00758C9.63841 8.95637 8.92061 9.05955 8.24885 9.31013C7.5771 9.56072 6.96709 9.95285 6.4602 10.4599L3.4602 13.4599C2.54941 14.4029 2.04544 15.6659 2.05683 16.9769C2.06822 18.2879 2.59407 19.542 3.52111 20.469C4.44815 21.3961 5.70221 21.9219 7.01319 21.9333C8.32418 21.9447 9.58719 21.4407 10.5302 20.5299L12.2402 18.8199" stroke="currentColor" stroke-width="2" stroke-linecap="round" stroke-linejoin="round"/>
</svg>
