<svg width="14" height="14" viewBox="0 0 14 14" fill="none" xmlns="http://www.w3.org/2000/svg">
<path d="M10.5013 12.2497C10.5013 11.012 10.0096 9.82501 9.13447 8.94984C8.2593 8.07467 7.07231 7.58301 5.83464 7.58301C4.59696 7.58301 3.40997 8.07467 2.5348 8.94984C1.65963 9.82501 1.16797 11.012 1.16797 12.2497" stroke="currentColor" stroke-linecap="round" stroke-linejoin="round"/>
<path d="M5.83464 7.58333C7.44547 7.58333 8.7513 6.2775 8.7513 4.66667C8.7513 3.05584 7.44547 1.75 5.83464 1.75C4.2238 1.75 2.91797 3.05584 2.91797 4.66667C2.91797 6.2775 4.2238 7.58333 5.83464 7.58333Z" stroke="currentColor" stroke-linecap="round" stroke-linejoin="round"/>
<path d="M12.8341 11.6665C12.8341 9.7007 11.6674 7.87487 10.5008 6.99987C10.8843 6.71215 11.1909 6.33434 11.3936 5.89986C11.5963 5.46538 11.6887 4.98764 11.6628 4.50892C11.6368 4.0302 11.4933 3.56525 11.2448 3.15524C10.9963 2.74522 10.6506 2.40277 10.2383 2.1582" stroke="currentColor" stroke-linecap="round" stroke-linejoin="round"/>
</svg>
