<svg width="16" height="16" viewBox="0 0 16 16" fill="none" xmlns="http://www.w3.org/2000/svg">
<path d="M11.9997 14.0001C11.9997 12.5856 11.4378 11.229 10.4376 10.2288C9.43738 9.22865 8.08083 8.66675 6.66634 8.66675C5.25185 8.66675 3.8953 9.22865 2.8951 10.2288C1.89491 11.229 1.33301 12.5856 1.33301 14.0001" stroke="currentColor" stroke-width="1.5" stroke-linecap="round" stroke-linejoin="round"/>
<path d="M6.66634 8.66667C8.50729 8.66667 9.99967 7.17428 9.99967 5.33333C9.99967 3.49238 8.50729 2 6.66634 2C4.82539 2 3.33301 3.49238 3.33301 5.33333C3.33301 7.17428 4.82539 8.66667 6.66634 8.66667Z" stroke="currentColor" stroke-width="1.5" stroke-linecap="round" stroke-linejoin="round"/>
<path d="M14.6669 13.3332C14.6669 11.0866 13.3335 8.99989 12.0002 7.99989C12.4385 7.67107 12.7889 7.23928 13.0206 6.74273C13.2522 6.24619 13.3579 5.7002 13.3282 5.15309C13.2985 4.60597 13.1345 4.07461 12.8505 3.60602C12.5666 3.13743 12.1715 2.74606 11.7002 2.46655" stroke="currentColor" stroke-width="1.5" stroke-linecap="round" stroke-linejoin="round"/>
</svg>
