<svg width="14" height="14" viewBox="0 0 14 14" fill="none" xmlns="http://www.w3.org/2000/svg">
<g clip-path="url(#clip0_3131_16123)">
<path d="M9.91536 7.58301L7.58203 12.833C7.1179 12.833 6.67278 12.6486 6.34459 12.3204C6.01641 11.9923 5.83203 11.5471 5.83203 11.083V8.74967H2.53036C2.36125 8.75159 2.19374 8.71671 2.03945 8.64746C1.88515 8.57821 1.74776 8.47625 1.63678 8.34862C1.5258 8.221 1.4439 8.07078 1.39675 7.90836C1.3496 7.74594 1.33832 7.57522 1.3637 7.40801L2.1687 2.15801C2.21089 1.87981 2.35219 1.62624 2.56659 1.444C2.78098 1.26177 3.05401 1.16316 3.33536 1.16634H9.91536M9.91536 7.58301V1.16634M9.91536 7.58301H11.6654C11.9748 7.58301 12.2715 7.46009 12.4903 7.2413C12.7091 7.02251 12.832 6.72576 12.832 6.41634V2.33301C12.832 2.02359 12.7091 1.72684 12.4903 1.50805C12.2715 1.28926 11.9748 1.16634 11.6654 1.16634H9.91536" stroke="currentColor" stroke-linecap="round" stroke-linejoin="round"/>
</g>
<defs>
<clipPath id="clip0_3131_16123">
<rect width="14" height="14" fill="white" transform="matrix(-1 0 0 -1 14 14)"/>
</clipPath>
</defs>
</svg>
