<svg width="12" height="12" viewBox="0 0 12 12" fill="none" xmlns="http://www.w3.org/2000/svg">
<path d="M5.5 8.5L6.5 9.5C6.59849 9.59849 6.71542 9.67662 6.8441 9.72992C6.97279 9.78323 7.11071 9.81066 7.25 9.81066C7.38929 9.81066 7.52721 9.78323 7.6559 9.72992C7.78458 9.67662 7.90151 9.59849 8 9.5C8.09849 9.40151 8.17662 9.28458 8.22992 9.1559C8.28323 9.02721 8.31066 8.88929 8.31066 8.75C8.31066 8.61071 8.28323 8.47279 8.22992 8.3441C8.17662 8.21542 8.09849 8.09849 8 8" stroke="currentColor" stroke-linecap="round" stroke-linejoin="round"/>
<path d="M7.00011 7.00001L8.25011 8.25001C8.44903 8.44892 8.71881 8.56067 9.00011 8.56067C9.28142 8.56067 9.5512 8.44892 9.75011 8.25001C9.94903 8.0511 10.0608 7.78131 10.0608 7.50001C10.0608 7.2187 9.94903 6.94892 9.75011 6.75001L7.81011 4.81001C7.52886 4.52911 7.14761 4.37133 6.75011 4.37133C6.35261 4.37133 5.97136 4.52911 5.69011 4.81001L5.25011 5.25001C5.0512 5.44892 4.78142 5.56067 4.50011 5.56067C4.21881 5.56067 3.94903 5.44892 3.75011 5.25001C3.5512 5.0511 3.43945 4.78131 3.43945 4.50001C3.43945 4.2187 3.5512 3.94892 3.75011 3.75001L5.15511 2.34501C5.61123 1.89008 6.20606 1.60028 6.84543 1.52149C7.48481 1.4427 8.1322 1.57942 8.68511 1.91001L8.92011 2.05001C9.13301 2.1785 9.38614 2.22307 9.63011 2.17501L10.5001 2.00001" stroke="currentColor" stroke-linecap="round" stroke-linejoin="round"/>
<path d="M10.5 1.5L11 7H10" stroke="currentColor" stroke-linecap="round" stroke-linejoin="round"/>
<path d="M1.5 1.5L1 7L4.25 10.25C4.44891 10.4489 4.7187 10.5607 5 10.5607C5.2813 10.5607 5.55109 10.4489 5.75 10.25C5.94891 10.0511 6.06066 9.7813 6.06066 9.5C6.06066 9.2187 5.94891 8.94891 5.75 8.75" stroke="currentColor" stroke-linecap="round" stroke-linejoin="round"/>
<path d="M1.5 2H5.5" stroke="currentColor" stroke-linecap="round" stroke-linejoin="round"/>
</svg>
