<svg width="16" height="16" viewBox="0 0 16 16" fill="none" xmlns="http://www.w3.org/2000/svg">
<path d="M9.33317 1.33334H3.99984C3.64622 1.33334 3.30708 1.47382 3.05703 1.72387C2.80698 1.97392 2.6665 2.31305 2.6665 2.66668V13.3333C2.6665 13.687 2.80698 14.0261 3.05703 14.2762C3.30708 14.5262 3.64622 14.6667 3.99984 14.6667H11.9998C12.3535 14.6667 12.6926 14.5262 12.9426 14.2762C13.1927 14.0261 13.3332 13.687 13.3332 13.3333V5.33334M9.33317 1.33334L13.3332 5.33334M9.33317 1.33334L9.33319 5.33334H13.3332M10.6665 8.66665H5.33319M10.6665 11.3333H5.33319M6.66653 6H5.33319" stroke="currentColor" stroke-width="1.5" stroke-linecap="round" stroke-linejoin="round"/>
</svg>
