<svg width="32" height="32" viewBox="0 0 32 32" fill="none" xmlns="http://www.w3.org/2000/svg">
<path d="M0 8C0 3.58172 3.58172 0 8 0H24C28.4183 0 32 3.58172 32 8V24C32 28.4183 28.4183 32 24 32H8C3.58172 32 0 28.4183 0 24V8Z" fill="#604AE8"/>
<path d="M4.70996 7.52875H10.3575V13.1762H4.70996V7.52875Z" fill="white"/>
<path d="M10.3584 7.52875H16.0059V13.1762H10.3584V7.52875Z" fill="white"/>
<path d="M16.0059 13.1772H21.6534V18.8247H16.0059V13.1772Z" fill="white"/>
<path d="M10.3584 18.8256H16.0059V24.4731H10.3584V18.8256Z" fill="white"/>
<path d="M4.70996 18.8256H10.3575V24.4731H4.70996V18.8256Z" fill="white"/>
<rect x="4.70996" y="13.1772" width="5.6475" height="5.6475" fill="white"/>
<path d="M21.6553 18.8256H27.3028V24.4731H21.6553V18.8256Z" fill="white"/>
</svg>
