<svg width="14" height="14" viewBox="0 0 14 14" fill="none" xmlns="http://www.w3.org/2000/svg">
<path d="M1.20297 7.203C1.15435 7.07203 1.15435 6.92796 1.20297 6.797C1.67646 5.64891 2.48018 4.66727 3.51225 3.97652C4.54431 3.28577 5.75824 2.91702 7.00013 2.91702C8.24202 2.91702 9.45595 3.28577 10.488 3.97652C11.5201 4.66727 12.3238 5.64891 12.7973 6.797C12.8459 6.92796 12.8459 7.07203 12.7973 7.203C12.3238 8.35108 11.5201 9.33272 10.488 10.0235C9.45595 10.7142 8.24202 11.083 7.00013 11.083C5.75824 11.083 4.54431 10.7142 3.51225 10.0235C2.48018 9.33272 1.67646 8.35108 1.20297 7.203Z" stroke="#1A1A1A" stroke-linecap="round" stroke-linejoin="round"/>
<path d="M7 8.75C7.9665 8.75 8.75 7.9665 8.75 7C8.75 6.0335 7.9665 5.25 7 5.25C6.0335 5.25 5.25 6.0335 5.25 7C5.25 7.9665 6.0335 8.75 7 8.75Z" stroke="#1A1A1A" stroke-linecap="round" stroke-linejoin="round"/>
</svg>
