<svg width="18" height="18" viewBox="0 0 18 18" fill="none" xmlns="http://www.w3.org/2000/svg">
<path d="M1.54639 9.261C1.48389 9.09261 1.48389 8.90738 1.54639 8.739C2.15517 7.26289 3.18853 6.00078 4.51547 5.11267C5.84241 4.22456 7.40317 3.75046 8.99989 3.75046C10.5966 3.75046 12.1574 4.22456 13.4843 5.11267C14.8113 6.00078 15.8446 7.26289 16.4534 8.739C16.5159 8.90738 16.5159 9.09261 16.4534 9.261C15.8446 10.7371 14.8113 11.9992 13.4843 12.8873C12.1574 13.7754 10.5966 14.2495 8.99989 14.2495C7.40317 14.2495 5.84241 13.7754 4.51547 12.8873C3.18853 11.9992 2.15517 10.7371 1.54639 9.261Z" stroke="currentColor" stroke-width="1.5" stroke-linecap="round" stroke-linejoin="round"/>
<path d="M9 11.25C10.2426 11.25 11.25 10.2426 11.25 9C11.25 7.75736 10.2426 6.75 9 6.75C7.75736 6.75 6.75 7.75736 6.75 9C6.75 10.2426 7.75736 11.25 9 11.25Z" stroke="currentColor" stroke-width="1.5" stroke-linecap="round" stroke-linejoin="round"/>
</svg>
