<svg width="14" height="14" viewBox="0 0 14 14" fill="none" xmlns="http://www.w3.org/2000/svg">
<path d="M3.5 4.95866C3.5 3.95305 3.89948 2.98862 4.61055 2.27755C5.32163 1.56647 6.28605 1.16699 7.29167 1.16699C8.29728 1.16699 9.2617 1.56647 9.97278 2.27755C10.6839 2.98862 11.0833 3.95305 11.0833 4.95866C11.0833 8.45866 7.58333 8.45866 7.58333 10.792C7.58333 11.0601 7.53052 11.3256 7.42792 11.5733C7.32532 11.821 7.17493 12.0461 6.98534 12.2357C6.79576 12.4253 6.57069 12.5756 6.32298 12.6782C6.07527 12.7809 5.80978 12.8337 5.54167 12.8337C5.27355 12.8337 5.00806 12.7809 4.76035 12.6782C4.51265 12.5756 4.28758 12.4253 4.09799 12.2357C3.9084 12.0461 3.75802 11.821 3.65541 11.5733C3.55281 11.3256 3.5 11.0601 3.5 10.792" stroke="currentColor" stroke-linecap="round" stroke-linejoin="round"/>
<path d="M8.7487 4.95833C8.7487 4.57156 8.59505 4.20063 8.32156 3.92714C8.04807 3.65365 7.67714 3.5 7.29036 3.5C6.90359 3.5 6.53266 3.65365 6.25917 3.92714C5.98568 4.20063 5.83203 4.57156 5.83203 4.95833V5.54167C6.14145 5.54167 6.4382 5.66458 6.65699 5.88338C6.87578 6.10217 6.9987 6.39891 6.9987 6.70833C6.9987 7.01775 6.87578 7.3145 6.65699 7.53329C6.4382 7.75208 6.14145 7.875 5.83203 7.875" stroke="currentColor" stroke-linecap="round" stroke-linejoin="round"/>
</svg>
