<svg width="16" height="16" viewBox="0 0 16 16" fill="none" xmlns="http://www.w3.org/2000/svg">
<path d="M4 5.66659C4 4.51731 4.45655 3.41511 5.2692 2.60246C6.08186 1.7898 7.18406 1.33325 8.33333 1.33325C9.4826 1.33325 10.5848 1.7898 11.3975 2.60246C12.2101 3.41511 12.6667 4.51731 12.6667 5.66659C12.6667 9.66659 8.66667 9.66659 8.66667 12.3333C8.66667 12.6397 8.60631 12.9431 8.48905 13.2262C8.37179 13.5093 8.19992 13.7665 7.98325 13.9832C7.76658 14.1998 7.50935 14.3717 7.22626 14.489C6.94317 14.6062 6.63975 14.6666 6.33333 14.6666C6.02692 14.6666 5.7235 14.6062 5.44041 14.489C5.15731 14.3717 4.90009 14.1998 4.68342 13.9832C4.46675 13.7665 4.29488 13.5093 4.17761 13.2262C4.06035 12.9431 4 12.6397 4 12.3333" stroke="currentColor" stroke-width="1.5" stroke-linecap="round" stroke-linejoin="round"/>
<path d="M10.0003 5.66667C10.0003 5.22464 9.82473 4.80072 9.51217 4.48816C9.19961 4.17559 8.77569 4 8.33366 4C7.89163 4 7.46771 4.17559 7.15515 4.48816C6.84259 4.80072 6.66699 5.22464 6.66699 5.66667V6.33333C7.02061 6.33333 7.35975 6.47381 7.6098 6.72386C7.85985 6.97391 8.00033 7.31304 8.00033 7.66667C8.00033 8.02029 7.85985 8.35943 7.6098 8.60948C7.35975 8.85952 7.02061 9 6.66699 9" stroke="currentColor" stroke-width="1.5" stroke-linecap="round" stroke-linejoin="round"/>
</svg>
