<svg width="16" height="16" viewBox="0 0 16 16" fill="none" xmlns="http://www.w3.org/2000/svg">
<path d="M4 7.99999H9.33333C10.0406 7.99999 10.7189 7.71904 11.219 7.21894C11.719 6.71884 12 6.04057 12 5.33332C12 4.62608 11.719 3.9478 11.219 3.4477C10.7189 2.94761 10.0406 2.66666 9.33333 2.66666H4V7.99999ZM4 7.99999L10 8C10.7072 8 11.3855 8.28095 11.8856 8.78105C12.3857 9.28115 12.6667 9.95942 12.6667 10.6667C12.6667 11.3739 12.3857 12.0522 11.8856 12.5523C11.3855 13.0524 10.7072 13.3333 10 13.3333H4V7.99999Z" stroke="currentColor" stroke-width="1.5" stroke-linecap="round" stroke-linejoin="round"/>
</svg>
