<svg width="14" height="14" viewBox="0 0 14 14" fill="none" xmlns="http://www.w3.org/2000/svg">
<g clip-path="url(#clip0_496_3148)">
<path d="M9.9165 1.75002C10.0697 1.59681 10.2516 1.47528 10.4518 1.39236C10.652 1.30945 10.8665 1.26677 11.0832 1.26677C11.2998 1.26677 11.5144 1.30945 11.7146 1.39236C11.9147 1.47528 12.0966 1.59681 12.2498 1.75002C12.403 1.90323 12.5246 2.08511 12.6075 2.28529C12.6904 2.48547 12.7331 2.70002 12.7331 2.91669C12.7331 3.13336 12.6904 3.3479 12.6075 3.54808C12.5246 3.74826 12.403 3.93014 12.2498 4.08335L4.37484 11.9584L1.1665 12.8334L2.0415 9.62502L9.9165 1.75002Z" stroke="currentColor" stroke-linecap="round" stroke-linejoin="round"/>
</g>
<defs>
<clipPath id="clip0_496_3148">
<rect width="14" height="14" fill="white"/>
</clipPath>
</defs>
</svg>
