<svg width="20" height="20" viewBox="0 0 20 20" fill="none" xmlns="http://www.w3.org/2000/svg">
<g clip-path="url(#clip0_496_3135)">
<path d="M14.1665 2.50003C14.3854 2.28116 14.6452 2.10754 14.9312 1.98909C15.2171 1.87064 15.5236 1.80967 15.8332 1.80967C16.1427 1.80967 16.4492 1.87064 16.7352 1.98909C17.0211 2.10754 17.281 2.28116 17.4998 2.50003C17.7187 2.7189 17.8923 2.97873 18.0108 3.2647C18.1292 3.55067 18.1902 3.85716 18.1902 4.16669C18.1902 4.47622 18.1292 4.78272 18.0108 5.06869C17.8923 5.35465 17.7187 5.61449 17.4998 5.83336L6.24984 17.0834L1.6665 18.3334L2.9165 13.75L14.1665 2.50003Z" stroke="currentColor" stroke-width="2" stroke-linecap="round" stroke-linejoin="round"/>
</g>
<defs>
<clipPath id="clip0_496_3135">
<rect width="20" height="20" fill="white"/>
</clipPath>
</defs>
</svg>
