<svg width="24" height="24" viewBox="0 0 24 24" fill="none" xmlns="http://www.w3.org/2000/svg">
<path d="M17 3.00003C17.2626 2.73739 17.5744 2.52905 17.9176 2.38691C18.2608 2.24476 18.6286 2.1716 19 2.1716C19.3714 2.1716 19.7392 2.24476 20.0824 2.38691C20.4256 2.52905 20.7374 2.73739 21 3.00003C21.2626 3.26268 21.471 3.57448 21.6131 3.91764C21.7553 4.2608 21.8284 4.6286 21.8284 5.00003C21.8284 5.37147 21.7553 5.73926 21.6131 6.08242C21.471 6.42558 21.2626 6.73739 21 7.00003L7.5 20.5L2 22L3.5 16.5L17 3.00003Z" stroke="currentColor" stroke-width="2" stroke-linecap="round" stroke-linejoin="round"/>
</svg>
