<svg width="16" height="16" viewBox="0 0 16 16" fill="none" xmlns="http://www.w3.org/2000/svg">
<path d="M3.33333 14H12.6667C13.403 14 14 13.403 14 12.6667V3.33333C14 2.59695 13.403 2 12.6667 2H3.33333C2.59695 2 2 2.59695 2 3.33333V12.6667C2 13.403 2.59695 14 3.33333 14ZM3.33333 14L10.6667 6.66666L14 9.99999M6.66666 5.66666C6.66666 6.21894 6.21894 6.66666 5.66666 6.66666C5.11437 6.66666 4.66666 6.21894 4.66666 5.66666C4.66666 5.11437 5.11437 4.66666 5.66666 4.66666C6.21894 4.66666 6.66666 5.11437 6.66666 5.66666Z" stroke="#1A1A1A" stroke-width="1.5" stroke-linecap="round" stroke-linejoin="round"/>
</svg>
