<svg width="14" height="14" viewBox="0 0 14 14" fill="none" xmlns="http://www.w3.org/2000/svg">
<path d="M5.13464 11.6665V9.27482L6.24297 9.39149C6.56563 9.37356 6.87098 9.23977 7.1029 9.01472C7.33481 8.78966 7.4777 8.48847 7.5053 8.16649V4.84149C7.50917 4.0011 7.17904 3.1936 6.58753 2.59663C5.99603 1.99965 5.1916 1.6621 4.35122 1.65824C3.51084 1.65437 2.70334 1.9845 2.10636 2.57601C1.50939 3.16751 1.17184 3.97194 1.16797 4.81232C1.16797 6.44565 1.55064 6.59382 1.7513 7.46649C1.88692 7.99351 1.89272 8.54556 1.76822 9.07532L1.16797 11.6665" stroke="currentColor" stroke-linecap="round" stroke-linejoin="round"/>
<path d="M11.5508 10.3833C12.3708 9.56317 12.8317 8.45095 12.832 7.29115C12.8323 6.13134 12.3721 5.01886 11.5525 4.19824" stroke="currentColor" stroke-linecap="round" stroke-linejoin="round"/>
<path d="M9.91693 8.74974C10.1078 8.55893 10.2589 8.33217 10.3616 8.08258C10.4642 7.83299 10.5164 7.56553 10.515 7.29566C10.5137 7.02578 10.4588 6.75885 10.3537 6.51031C10.2485 6.26177 10.0951 6.03654 9.90234 5.84766" stroke="currentColor" stroke-linecap="round" stroke-linejoin="round"/>
</svg>
