<svg width="16" height="16" viewBox="0 0 16 16" fill="none" xmlns="http://www.w3.org/2000/svg">
<path d="M5.86634 13.3333V10.6L7.13301 10.7333C7.50177 10.7128 7.85074 10.5599 8.11578 10.3027C8.38082 10.0455 8.54413 9.70128 8.57567 9.3333V5.5333C8.5801 4.57286 8.2028 3.65001 7.5268 2.96775C6.85079 2.28549 5.93145 1.89972 4.97101 1.8953C4.01057 1.89088 3.08771 2.26817 2.40546 2.94418C1.7232 3.62019 1.33743 4.53953 1.33301 5.49997C1.33301 7.36663 1.77034 7.53597 1.99967 8.5333C2.15466 9.13562 2.1613 9.76653 2.01901 10.372L1.33301 13.3333" stroke="currentColor" stroke-width="1.5" stroke-linecap="round" stroke-linejoin="round"/>
<path d="M13.2002 11.8668C14.1374 10.9294 14.6641 9.65834 14.6645 8.33284C14.6648 7.00735 14.1389 5.73594 13.2022 4.7981" stroke="currentColor" stroke-width="1.5" stroke-linecap="round" stroke-linejoin="round"/>
<path d="M11.3331 10C11.5512 9.78195 11.7239 9.52279 11.8412 9.23755C11.9586 8.95231 12.0182 8.64663 12.0166 8.33821C12.0151 8.02978 11.9524 7.72472 11.8322 7.44067C11.712 7.15662 11.5367 6.89922 11.3164 6.68335" stroke="currentColor" stroke-width="1.5" stroke-linecap="round" stroke-linejoin="round"/>
</svg>
