<svg width="14" height="14" viewBox="0 0 14 14" fill="none" xmlns="http://www.w3.org/2000/svg">
<path d="M7 7H7.00583" stroke="currentColor" stroke-linecap="round" stroke-linejoin="round"/>
<path d="M9.33317 3.50001V2.33334C9.33317 2.02392 9.21025 1.72717 8.99146 1.50838C8.77267 1.28959 8.47592 1.16667 8.1665 1.16667H5.83317C5.52375 1.16667 5.22701 1.28959 5.00821 1.50838C4.78942 1.72717 4.6665 2.02392 4.6665 2.33334V3.50001" stroke="currentColor" stroke-linecap="round" stroke-linejoin="round"/>
<path d="M11.6665 3.5H2.33317C1.68884 3.5 1.1665 4.02233 1.1665 4.66667V10.5C1.1665 11.1443 1.68884 11.6667 2.33317 11.6667H11.6665C12.3108 11.6667 12.8332 11.1443 12.8332 10.5V4.66667C12.8332 4.02233 12.3108 3.5 11.6665 3.5Z" stroke="currentColor" stroke-linecap="round" stroke-linejoin="round"/>
</svg>
