<svg width="12" height="12" viewBox="0 0 12 12" fill="none" xmlns="http://www.w3.org/2000/svg">
<path d="M7 7C7.26522 7 7.51957 6.89464 7.70711 6.70711C7.89464 6.51957 8 6.26522 8 6V4H7" stroke="#1A1A1A" stroke-linecap="round" stroke-linejoin="round"/>
<path d="M11 8.5C11 8.76522 10.8946 9.01957 10.7071 9.20711C10.5196 9.39464 10.2652 9.5 10 9.5H3.414C3.14881 9.50006 2.89449 9.60545 2.707 9.793L1.606 10.894C1.55635 10.9436 1.4931 10.9774 1.42424 10.9911C1.35539 11.0048 1.28402 10.9978 1.21915 10.9709C1.15429 10.9441 1.09885 10.8986 1.05984 10.8402C1.02083 10.7818 1.00001 10.7132 1 10.643V2.5C1 2.23478 1.10536 1.98043 1.29289 1.79289C1.48043 1.60536 1.73478 1.5 2 1.5H10C10.2652 1.5 10.5196 1.60536 10.7071 1.79289C10.8946 1.98043 11 2.23478 11 2.5V8.5Z" stroke="#1A1A1A" stroke-linecap="round" stroke-linejoin="round"/>
<path d="M4 7C4.26522 7 4.51957 6.89464 4.70711 6.70711C4.89464 6.51957 5 6.26522 5 6V4H4" stroke="currentColor" stroke-linecap="round" stroke-linejoin="round"/>
</svg>
