<svg width="14" height="14" viewBox="0 0 14 14" fill="none" xmlns="http://www.w3.org/2000/svg">
<path d="M9.91683 12.25V11.0833C9.91683 10.4645 9.671 9.871 9.23341 9.43342C8.79583 8.99583 8.20234 8.75 7.5835 8.75H2.91683C2.29799 8.75 1.7045 8.99583 1.26691 9.43342C0.829329 9.871 0.583496 10.4645 0.583496 11.0833V12.25M13.4168 12.25V11.0833C13.4164 10.5663 13.2444 10.0641 12.9276 9.65551C12.6109 9.24691 12.1674 8.95508 11.6668 8.82583M9.3335 1.82583C9.8354 1.95434 10.2803 2.24624 10.598 2.65551C10.9156 3.06479 11.0881 3.56815 11.0881 4.08625C11.0881 4.60435 10.9156 5.10771 10.598 5.51698C10.2803 5.92626 9.8354 6.21816 9.3335 6.34666M7.5835 4.08333C7.5835 5.372 6.53883 6.41667 5.25016 6.41667C3.9615 6.41667 2.91683 5.372 2.91683 4.08333C2.91683 2.79467 3.9615 1.75 5.25016 1.75C6.53883 1.75 7.5835 2.79467 7.5835 4.08333Z" stroke="currentColor" stroke-linecap="round" stroke-linejoin="round"/>
</svg>
