<svg width="14" height="14" viewBox="0 0 14 14" fill="none" xmlns="http://www.w3.org/2000/svg">
<g clip-path="url(#clip0_496_3143)">
<path d="M4.08317 6.41667L6.4165 1.16667C6.88063 1.16667 7.32575 1.35105 7.65394 1.67923C7.98213 2.00742 8.1665 2.45254 8.1665 2.91667V5.25H11.4682C11.6373 5.24809 11.8048 5.28297 11.9591 5.35222C12.1134 5.42147 12.2508 5.52343 12.3618 5.65105C12.4727 5.77868 12.5546 5.9289 12.6018 6.09132C12.6489 6.25374 12.6602 6.42446 12.6348 6.59167L11.8298 11.8417C11.7876 12.1199 11.6463 12.3734 11.4319 12.5557C11.2176 12.7379 10.9445 12.8365 10.6632 12.8333H4.08317M4.08317 6.41667V12.8333M4.08317 6.41667H2.33317C2.02375 6.41667 1.72701 6.53959 1.50821 6.75838C1.28942 6.97717 1.1665 7.27392 1.1665 7.58334V11.6667C1.1665 11.9761 1.28942 12.2728 1.50821 12.4916C1.72701 12.7104 2.02375 12.8333 2.33317 12.8333H4.08317" stroke="#1A1A1A" stroke-linecap="round" stroke-linejoin="round"/>
</g>
<defs>
<clipPath id="clip0_496_3143">
<rect width="14" height="14" fill="white"/>
</clipPath>
</defs>
</svg>
